HIERARCHY
ROOT Hips
{
	OFFSET 0.000000 100.481300 0.000000
	CHANNELS 6 Xposition Yposition Zposition Xrotation Yrotation Zrotation 
	JOINT Spine
	{
		OFFSET -0.279200 12.230698 -2.892100
		CHANNELS 3 Xrotation Yrotation Zrotation
		JOINT Spine1
		{
			OFFSET -0.232667 10.192268 -1.242267
			CHANNELS 3 Xrotation Yrotation Zrotation
			JOINT Spine1_split
			{
				OFFSET -0.232667 10.192268 -1.242267
				CHANNELS 3 Xrotation Yrotation Zrotation
				JOINT Spine2
				{
					OFFSET -0.232667 10.192268 -1.242267
					CHANNELS 3 Xrotation Yrotation Zrotation
					JOINT Neck
					{
						OFFSET -0.418800 17.814194 8.416900
						CHANNELS 3 Xrotation Yrotation Zrotation
						JOINT Head
						{
							OFFSET 0.000000 7.031097 3.806800
							CHANNELS 3 Xrotation Yrotation Zrotation
							JOINT HeadTop_End
							{
								OFFSET 0.000000 24.646606 12.978600
								CHANNELS 3 Xrotation Yrotation Zrotation
								End Site
								{
									OFFSET 0.000000 0.000000 0.000000
								}
							}
						}
					}
					JOINT LeftShoulder
					{
						OFFSET 8.476499 7.247704 -3.868750
						CHANNELS 3 Xrotation Yrotation Zrotation
						JOINT LeftShoulder_split
						{
							OFFSET 8.476499 7.247704 -3.868750
							CHANNELS 3 Xrotation Yrotation Zrotation
							JOINT LeftArm
							{
								OFFSET 9.308998 -2.777710 0.208600
								CHANNELS 3 Xrotation Yrotation Zrotation
								JOINT LeftForeArm
								{
									OFFSET 29.972298 0.000000 0.000000
									CHANNELS 3 Xrotation Yrotation Zrotation
									JOINT LeftHand
									{
										OFFSET 26.026505 0.000000 0.000000
										CHANNELS 3 Xrotation Yrotation Zrotation
										JOINT LeftHandThumb1
										{
											OFFSET 12.240501 -7.147949 9.207150
											CHANNELS 3 Xrotation Yrotation Zrotation
											JOINT LeftHandThumb2
											{
												OFFSET 4.138618 -2.389435 2.389433
												CHANNELS 3 Xrotation Yrotation Zrotation
												JOINT LeftHandThumb3
												{
													OFFSET 2.726913 -1.574387 1.574386
													CHANNELS 3 Xrotation Yrotation Zrotation
													JOINT LeftHandThumb4
													{
														OFFSET 3.941010 -2.275345 2.275342
														CHANNELS 3 Xrotation Yrotation Zrotation
														End Site
														{
															OFFSET 0.000000 0.000000 0.000000
														}
													}
												}
											}
										}
										JOINT LeftHandIndex1
										{
											OFFSET 24.424698 -1.985611 5.953459
											CHANNELS 3 Xrotation Yrotation Zrotation
											JOINT LeftHandIndex2
											{
												OFFSET 6.426697 0.000000 0.000000
												CHANNELS 3 Xrotation Yrotation Zrotation
												JOINT LeftHandIndex3
												{
													OFFSET 5.337898 0.000000 0.000000
													CHANNELS 3 Xrotation Yrotation Zrotation
													JOINT LeftHandIndex4
													{
														OFFSET 4.409401 0.000000 0.000000
														CHANNELS 3 Xrotation Yrotation Zrotation
														End Site
														{
															OFFSET 0.000000 0.000000 0.000000
														}
													}
												}
											}
										}
										JOINT LeftHandMiddle1
										{
											OFFSET 23.810104 0.000000 0.000000
											CHANNELS 3 Xrotation Yrotation Zrotation
											JOINT LeftHandMiddle2
											{
												OFFSET 7.176498 0.000000 0.000000
												CHANNELS 3 Xrotation Yrotation Zrotation
												JOINT LeftHandMiddle3
												{
													OFFSET 6.774902 0.000000 0.000000
													CHANNELS 3 Xrotation Yrotation Zrotation
													JOINT LeftHandMiddle4
													{
														OFFSET 5.403328 0.000000 0.000000
														CHANNELS 3 Xrotation Yrotation Zrotation
														End Site
														{
															OFFSET 0.000000 0.000000 0.000000
														}
													}
												}
											}
										}
										JOINT LeftHandRing1
										{
											OFFSET 22.908401 -0.839279 -6.020567
											CHANNELS 3 Xrotation Yrotation Zrotation
											JOINT LeftHandRing2
											{
												OFFSET 6.337502 0.000000 0.000000
												CHANNELS 3 Xrotation Yrotation Zrotation
												JOINT LeftHandRing3
												{
													OFFSET 5.779297 0.000000 0.000000
													CHANNELS 3 Xrotation Yrotation Zrotation
													JOINT LeftHandRing4
													{
														OFFSET 4.965698 0.000000 0.000000
														CHANNELS 3 Xrotation Yrotation Zrotation
														End Site
														{
															OFFSET 0.000000 0.000000 0.000000
														}
													}
												}
											}
										}
										JOINT LeftHandPinky1
										{
											OFFSET 20.037003 -1.530319 -10.950146
											CHANNELS 3 Xrotation Yrotation Zrotation
											JOINT LeftHandPinky2
											{
												OFFSET 5.254700 0.000000 0.000000
												CHANNELS 3 Xrotation Yrotation Zrotation
												JOINT LeftHandPinky3
												{
													OFFSET 4.810204 0.000000 0.000000
													CHANNELS 3 Xrotation Yrotation Zrotation
													JOINT LeftHandPinky4
													{
														OFFSET 3.647202 0.000000 0.000000
														CHANNELS 3 Xrotation Yrotation Zrotation
														End Site
														{
															OFFSET 0.000000 0.000000 0.000000
														}
													}
												}
											}
										}
									}
								}
							}
						}
					}
					JOINT RightShoulder
					{
						OFFSET -7.570500 7.247704 -3.868750
						CHANNELS 3 Xrotation Yrotation Zrotation
						JOINT RightShoulder_split
						{
							OFFSET -7.570500 7.247704 -3.868750
							CHANNELS 3 Xrotation Yrotation Zrotation
							JOINT RightArm
							{
								OFFSET -9.308998 -2.777710 0.208500
								CHANNELS 3 Xrotation Yrotation Zrotation
								JOINT RightForeArm
								{
									OFFSET -29.972300 0.000000 0.000000
									CHANNELS 3 Xrotation Yrotation Zrotation
									JOINT RightHand
									{
										OFFSET -26.026505 0.000000 0.000000
										CHANNELS 3 Xrotation Yrotation Zrotation
										JOINT RightHandThumb1
										{
											OFFSET -12.240601 -7.148026 9.207092
											CHANNELS 3 Xrotation Yrotation Zrotation
											JOINT RightHandThumb2
											{
												OFFSET -4.138618 -2.389435 2.389433
												CHANNELS 3 Xrotation Yrotation Zrotation
												JOINT RightHandThumb3
												{
													OFFSET -2.726974 -1.574417 1.574421
													CHANNELS 3 Xrotation Yrotation Zrotation
													JOINT RightHandThumb4
													{
														OFFSET -3.941010 -2.275345 2.275343
														CHANNELS 3 Xrotation Yrotation Zrotation
														End Site
														{
															OFFSET 0.000000 0.000000 0.000000
														}
													}
												}
											}
										}
										JOINT RightHandIndex1
										{
											OFFSET -24.424698 -1.985657 5.953444
											CHANNELS 3 Xrotation Yrotation Zrotation
											JOINT RightHandIndex2
											{
												OFFSET -6.426697 0.000000 0.000000
												CHANNELS 3 Xrotation Yrotation Zrotation
												JOINT RightHandIndex3
												{
													OFFSET -5.337898 0.000000 0.000000
													CHANNELS 3 Xrotation Yrotation Zrotation
													JOINT RightHandIndex4
													{
														OFFSET -4.409401 0.000000 0.000000
														CHANNELS 3 Xrotation Yrotation Zrotation
														End Site
														{
															OFFSET 0.000000 0.000000 0.000000
														}
													}
												}
											}
										}
										JOINT RightHandMiddle1
										{
											OFFSET -23.810097 0.000000 0.000000
											CHANNELS 3 Xrotation Yrotation Zrotation
											JOINT RightHandMiddle2
											{
												OFFSET -7.176498 0.000000 0.000000
												CHANNELS 3 Xrotation Yrotation Zrotation
												JOINT RightHandMiddle3
												{
													OFFSET -6.774902 0.000000 0.000000
													CHANNELS 3 Xrotation Yrotation Zrotation
													JOINT RightHandMiddle4
													{
														OFFSET -5.403328 0.000000 0.000000
														CHANNELS 3 Xrotation Yrotation Zrotation
														End Site
														{
															OFFSET 0.000000 0.000000 0.000000
														}
													}
												}
											}
										}
										JOINT RightHandRing1
										{
											OFFSET -22.908302 -0.839325 -6.020576
											CHANNELS 3 Xrotation Yrotation Zrotation
											JOINT RightHandRing2
											{
												OFFSET -6.337502 0.000000 0.000000
												CHANNELS 3 Xrotation Yrotation Zrotation
												JOINT RightHandRing3
												{
													OFFSET -5.779297 0.000000 0.000000
													CHANNELS 3 Xrotation Yrotation Zrotation
													JOINT RightHandRing4
													{
														OFFSET -4.965698 0.000000 0.000000
														CHANNELS 3 Xrotation Yrotation Zrotation
														End Site
														{
															OFFSET 0.000000 0.000000 0.000000
														}
													}
												}
											}
										}
										JOINT RightHandPinky1
										{
											OFFSET -20.037003 -1.530334 -10.950259
											CHANNELS 3 Xrotation Yrotation Zrotation
											JOINT RightHandPinky2
											{
												OFFSET -5.254700 0.000000 0.000000
												CHANNELS 3 Xrotation Yrotation Zrotation
												JOINT RightHandPinky3
												{
													OFFSET -4.810204 0.000000 0.000000
													CHANNELS 3 Xrotation Yrotation Zrotation
													JOINT RightHandPinky4
													{
														OFFSET -3.647202 0.000000 0.000000
														CHANNELS 3 Xrotation Yrotation Zrotation
														End Site
														{
															OFFSET 0.000000 0.000000 0.000000
														}
													}
												}
											}
										}
									}
								}
							}
						}
					}
				}
			}
		}
	}
	JOINT LeftUpLeg
	{
		OFFSET 15.427100 -6.655098 0.678600
		CHANNELS 3 Xrotation Yrotation Zrotation
		JOINT LeftLeg
		{
			OFFSET 4.081073 -39.591068 13.024000
			CHANNELS 3 Xrotation Yrotation Zrotation
			JOINT LeftFoot
			{
				OFFSET -4.081074 -37.707932 -15.979700
				CHANNELS 3 Xrotation Yrotation Zrotation
				JOINT LeftToeBase
				{
					OFFSET 5.346399 -15.068900 20.645000
					CHANNELS 3 Xrotation Yrotation Zrotation
					JOINT LeftToe_End
					{
						OFFSET 2.754700 0.931300 11.300900
						CHANNELS 3 Xrotation Yrotation Zrotation
						End Site
						{
							OFFSET 0.000000 0.000000 0.000000
						}
					}
				}
			}
		}
	}
	JOINT RightUpLeg
	{
		OFFSET -15.569500 -6.655098 0.678600
		CHANNELS 3 Xrotation Yrotation Zrotation
		JOINT RightLeg
		{
			OFFSET -4.081825 -39.591045 13.023800
			CHANNELS 3 Xrotation Yrotation Zrotation
			JOINT RightFoot
			{
				OFFSET 4.081824 -37.707954 -15.979600
				CHANNELS 3 Xrotation Yrotation Zrotation
				JOINT RightToeBase
				{
					OFFSET -5.346400 -15.068900 20.645000
					CHANNELS 3 Xrotation Yrotation Zrotation
					JOINT RightToe_End
					{
						OFFSET -2.754700 0.931300 11.300900
						CHANNELS 3 Xrotation Yrotation Zrotation
						End Site
						{
							OFFSET 0.000000 0.000000 0.000000
						}
					}
				}
			}
		}
	}
}
MOTION
Frames: 5
Frame Time: 0.016667
-8.755606 74.610115 1.946367 5.923541 -41.787312 13.141049 17.848377 -5.511113 2.302181 28.909032 -4.182641 -1.799673 0.000000 0.000000 0.000000 17.801735 -2.616837 -3.497802 3.925433 -0.806459 17.439372 7.730323 1.255955 -11.559184 -0.000000 0.000000 -0.000002 2.354293 -30.783096 2.356258 0.000000 0.000000 0.000000 -34.242836 -26.233512 -29.291434 -7.515774 -26.361392 1.290828 6.941798 -20.603894 5.351072 16.254360 -11.504923 21.549254 4.507340 18.475102 -9.635917 8.841690 13.664035 -1.275359 0.000001 0.000002 -0.000001 1.539058 -3.432141 14.456422 -0.180786 -1.247023 -29.044123 -0.139225 -1.164280 -22.988212 0.000001 -0.000000 0.000000 1.659190 1.542432 -11.529124 0.180729 -1.715828 -25.398306 0.336260 -2.045022 -28.954357 -0.000000 0.000000 -0.000002 -0.041052 5.351834 -28.839880 -0.820811 -0.913429 -27.616161 -0.881388 -1.072843 -31.473635 0.000002 0.000000 0.000000 0.111653 11.221151 -18.652979 -0.848719 -0.437677 -22.689945 -2.248523 -0.059552 -39.682149 0.000001 -0.000001 0.000000 -0.512609 12.805416 24.404307 0.000000 0.000000 0.000000 -20.406276 -19.745811 20.483672 -21.210866 81.262845 19.903069 -23.264553 11.560928 8.425364 55.149522 18.649606 -29.698284 -0.442523 -14.180563 7.313155 21.666962 -29.244497 9.142355 -0.000001 0.000002 0.000002 5.673399 7.585020 36.844151 1.050460 3.824516 68.900257 0.499578 3.026036 62.196447 0.000002 -0.000002 -0.000000 -0.125702 1.886084 45.000759 -1.168977 3.204686 68.417650 -0.936412 1.813629 41.107569 0.000002 -0.000004 -0.000002 -5.311984 1.216646 58.508801 -0.745232 1.667582 48.011302 -0.816479 1.840616 53.666535 0.000001 0.000003 0.000001 -7.756805 -9.376464 47.263994 -0.526026 1.541611 45.600525 -0.508196 0.803438 24.986628 -0.000003 -0.000001 0.000001 -57.017787 30.474497 35.869025 38.212596 -24.921453 3.440693 7.416707 0.708886 -15.626383 -0.971720 -6.109426 0.594967 -0.000000 0.000001 0.000000 -15.935704 -7.518124 -35.640576 49.934564 5.100276 -4.835017 -38.063630 -9.874354 25.144827 0.528345 2.970057 1.471344 -0.000000 -0.000002 -0.000000 
-8.359524 74.883965 2.044585 4.368117 -41.263638 11.627697 17.629352 -5.363025 2.249219 28.357197 -3.983559 -2.018765 0.000000 0.000000 0.000000 17.259835 -2.365360 -3.582327 3.399023 0.434966 18.470300 8.197271 1.394243 -12.300082 -0.000001 0.000000 -0.000000 2.328580 -30.676869 2.585259 0.000000 0.000000 0.000000 -33.628822 -25.347565 -29.746505 -7.805135 -23.996575 1.221996 7.439358 -16.512001 6.913799 16.347998 -10.644484 20.290658 4.173222 18.061324 -9.539046 8.819976 13.691508 -1.261300 -0.000002 -0.000001 0.000002 -0.027719 -3.469731 16.408554 -0.157415 -1.203755 -27.954889 -0.118012 -1.121281 -22.001766 0.000002 -0.000003 0.000001 1.407619 2.022321 -8.664057 0.274513 -1.534068 -22.087508 0.441789 -1.863457 -25.796714 -0.000002 0.000001 -0.000001 0.329453 4.603397 -25.951958 -0.773370 -0.788258 -24.421526 -0.818852 -0.944879 -28.095140 0.000005 -0.000001 0.000001 1.291763 9.409259 -14.825728 -0.832733 -0.348418 -20.341080 -2.250997 -0.032433 -37.354564 -0.000002 0.000000 -0.000002 -0.608459 13.107903 25.085198 0.000000 0.000000 0.000000 -20.872667 -20.553233 19.261014 -11.666664 82.321360 10.693130 -23.900133 9.732273 8.487053 55.149526 18.649599 -29.698284 -0.442524 -14.180568 7.313157 21.666965 -29.244497 9.142355 0.000003 0.000000 -0.000004 5.673401 7.585015 36.844151 1.050460 3.824517 68.900257 0.499573 3.026038 62.196454 0.000003 -0.000002 -0.000000 -0.125700 1.886085 45.000756 -1.168979 3.204683 68.417650 -0.936418 1.813630 41.107565 0.000001 0.000000 0.000001 -5.311983 1.216647 58.508801 -0.745233 1.667583 48.011302 -0.816480 1.840614 53.666538 0.000004 -0.000001 0.000000 -7.756804 -9.376464 47.263987 -0.526022 1.541608 45.600522 -0.508196 0.803431 24.986632 -0.000002 0.000004 -0.000003 -56.720056 30.621278 35.912144 38.240392 -25.021988 3.471306 7.750313 -0.106883 -14.859997 -0.971720 -6.109424 0.594967 0.000000 -0.000001 -0.000000 -14.354232 -8.392267 -35.388740 48.956293 4.949331 -4.774415 -37.498179 -9.975994 25.402949 0.528345 2.970060 1.471343 0.000000 -0.000000 0.000000 
-7.991850 75.116959 2.171336 3.130310 -40.548593 10.300694 17.432757 -5.135464 2.343312 27.805765 -3.750692 -1.987551 0.000000 0.000000 0.000000 16.722216 -2.190760 -3.346995 2.348161 1.128147 18.345330 8.178882 1.108627 -12.085787 -0.000001 0.000000 -0.000003 2.243004 -30.396224 2.625580 0.000000 0.000000 0.000000 -33.029190 -24.760081 -30.398109 -7.945692 -22.391699 0.965498 6.968094 -14.661035 7.619773 16.520313 -10.013526 19.194254 3.726976 17.497787 -9.405205 8.670549 13.479794 -1.218513 0.000002 0.000001 0.000002 -1.121924 -3.629181 17.132778 -0.125490 -1.141291 -26.402315 -0.092964 -1.063530 -20.704800 0.000002 0.000001 0.000001 1.251171 2.428153 -6.762193 0.341890 -1.385028 -19.439907 0.518514 -1.713229 -23.243234 0.000001 -0.000001 0.000001 0.442691 4.444532 -23.821678 -0.734566 -0.666208 -21.365052 -0.754502 -0.799113 -24.439383 0.000001 0.000000 0.000001 2.196506 8.467072 -11.623444 -0.821261 -0.265662 -18.176542 -2.246818 -0.008337 -34.622755 0.000000 0.000000 -0.000001 -0.501983 12.543242 24.284782 0.000000 0.000000 0.000000 -20.300881 -21.057219 19.750064 -3.535798 83.023927 2.884660 -24.115023 8.786017 8.308346 55.149526 18.649603 -29.698291 -0.442525 -14.180570 7.313152 21.666967 -29.244497 9.142354 0.000000 0.000000 -0.000001 5.673400 7.585019 36.844151 1.050459 3.824517 68.900257 0.499570 3.026036 62.196447 -0.000002 -0.000002 -0.000001 -0.125699 1.886084 45.000759 -1.168980 3.204686 68.417657 -0.936417 1.813633 41.107569 0.000001 0.000001 0.000001 -5.311980 1.216645 58.508801 -0.745229 1.667586 48.011302 -0.816483 1.840613 53.666541 -0.000001 -0.000000 -0.000001 -7.756806 -9.376464 47.263990 -0.526025 1.541609 45.600522 -0.508196 0.803433 24.986627 -0.000001 0.000002 -0.000000 -56.740079 30.686729 35.944386 38.351403 -25.134459 3.513957 8.100133 -0.969735 -14.061366 -0.971720 -6.109425 0.594967 -0.000000 0.000001 0.000000 -12.815630 -9.223169 -35.002537 47.980638 4.714116 -4.711814 -36.993524 -10.254359 25.676780 0.528345 2.970054 1.471343 0.000000 0.000000 0.000000 
-7.631217 75.348633 2.302620 2.041002 -39.718581 9.116961 17.206664 -4.912565 2.416848 27.212097 -3.554404 -1.949093 0.000000 0.000000 0.000000 16.129912 -2.065773 -3.134681 1.254567 1.689152 17.729127 7.834691 0.608337 -11.472241 -0.000000 0.000000 -0.000004 2.180215 -30.084685 2.687284 0.000000 0.000000 0.000000 -32.508938 -24.092751 -31.048155 -8.013992 -21.085977 0.699059 6.449165 -13.147129 7.884983 16.823164 -9.647909 18.086881 3.016004 16.587729 -9.197004 8.295758 12.860999 -1.130131 0.000001 0.000001 0.000001 -1.666533 -3.856543 16.343926 -0.080182 -1.044518 -24.034971 -0.060082 -0.976340 -18.783727 0.000000 -0.000000 0.000000 1.220576 2.798738 -5.837799 0.392850 -1.258217 -17.228413 0.574417 -1.585246 -21.055795 -0.000001 0.000001 -0.000000 0.086350 5.042145 -22.266470 -0.697786 -0.522220 -17.818287 -0.676535 -0.591933 -19.519682 0.000001 0.000002 0.000004 2.680541 8.471313 -8.438548 -0.812039 -0.171833 -15.734268 -2.231136 0.019649 -30.599589 0.000000 0.000001 0.000001 -0.531456 12.423653 23.593300 0.000000 0.000000 0.000000 -19.558399 -22.044738 20.084125 3.473263 83.560241 -3.939935 -24.470162 8.375679 8.315521 55.149526 18.649603 -29.698284 -0.442523 -14.180566 7.313154 21.666962 -29.244500 9.142349 -0.000004 0.000002 0.000000 5.673402 7.585018 36.844147 1.050459 3.824521 68.900257 0.499573 3.026035 62.196454 -0.000003 -0.000003 -0.000003 -0.125700 1.886086 45.000759 -1.168979 3.204683 68.417650 -0.936415 1.813634 41.107569 0.000002 -0.000003 -0.000002 -5.311983 1.216645 58.508794 -0.745232 1.667580 48.011305 -0.816481 1.840612 53.666541 -0.000001 0.000001 0.000001 -7.756803 -9.376464 47.263994 -0.526022 1.541608 45.600522 -0.508193 0.803432 24.986625 0.000001 0.000001 0.000000 -56.830319 30.774104 35.891510 38.430275 -25.244446 3.554938 8.493995 -1.861047 -13.240945 -0.971720 -6.109426 0.594967 0.000000 0.000001 0.000000 -11.287256 -10.036702 -34.591039 46.984714 4.438541 -4.646929 -36.494548 -10.612213 25.960764 0.528345 2.970060 1.471343 0.000000 -0.000000 0.000000 
-7.251204 75.556541 2.448763 1.064606 -38.768488 8.018771 16.931518 -4.645811 2.479600 26.497516 -3.322629 -1.871165 0.000000 0.000000 0.000000 15.414538 -1.914821 -2.870124 0.122201 2.140503 16.791706 7.297419 0.005018 -10.608289 -0.000001 0.000000 0.000001 2.094835 -29.741266 2.683919 0.000000 0.000000 0.000000 -32.458309 -24.179771 -32.033901 -7.953851 -18.514155 0.568105 5.913456 -12.598910 7.798181 17.233375 -9.462778 16.798195 2.017947 15.305320 -8.937764 7.707074 11.866234 -1.015596 0.000003 -0.000001 -0.000002 -1.807576 -4.162784 14.448500 -0.025257 -0.910578 -20.829263 -0.023106 -0.854788 -16.160890 0.000000 -0.000001 0.000000 1.262183 3.177000 -5.419827 0.440134 -1.125637 -14.951247 0.624410 -1.450644 -18.752778 0.000000 -0.000000 0.000001 -0.672557 6.218746 -20.676437 -0.664268 -0.338498 -13.360576 -0.599191 -0.302066 -12.933674 -0.000000 -0.000000 0.000000 2.927997 9.173171 -4.572641 -0.806147 -0.052479 -12.638230 -2.204833 0.060457 -24.999454 0.000000 0.000001 -0.000000 -0.581437 12.172563 22.633329 0.000000 0.000000 0.000000 -18.476249 -23.129507 20.926038 8.441371 83.819562 -8.872125 -24.702913 8.401419 8.627177 55.149526 18.649601 -29.698287 -0.442524 -14.180565 7.313156 21.666963 -29.244493 9.142354 -0.000000 -0.000001 -0.000002 5.673395 7.585019 36.844144 1.050459 3.824516 68.900257 0.499576 3.026036 62.196454 -0.000000 -0.000004 -0.000003 -0.125707 1.886084 45.000759 -1.168976 3.204682 68.417650 -0.936409 1.813631 41.107572 -0.000000 0.000000 -0.000001 -5.311991 1.216649 58.508794 -0.745230 1.667583 48.011305 -0.816480 1.840615 53.666538 -0.000001 -0.000001 0.000001 -7.756808 -9.376463 47.263994 -0.526023 1.541612 45.600525 -0.508196 0.803438 24.986627 0.000002 0.000002 0.000001 -57.043442 30.854362 35.787886 38.563207 -25.358623 3.602607 8.917450 -2.794137 -12.356581 -0.971720 -6.109426 0.594967 0.000000 0.000001 0.000000 -9.744097 -10.845908 -34.144416 45.975506 4.131373 -4.577771 -35.995029 -11.053189 26.271872 0.528345 2.970055 1.471343 0.000000 -0.000000 0.000000 
